# xmcd
#
# Track frame offsets:
#	150
#	17180
#	60890
#	104562
#
# Disc length: 1682 seconds
# Revision: 0
# Processed by: cddbd v1.5.2PL0 Copyright (c) Steve Scherf et al.
# Submitted via: dBpowerAMP V12.0
#
DISCID=2a069004
DTITLE=Brownstone - 5 Miles To Empty [R.H. Factor Club Remixes]
DYEAR=1997
DGENRE=House
TTITLE0=5 Miles To Empty [R. H. Factor Radio Edit]
TTITLE1=5 Miles To Empty [R. H. Factor 215th Place Mix]
TTITLE2=5 Miles To Empty [R. H. Factor 215th Street Mix]
TTITLE3=5 Miles To Empty [R. H. Factor Beats]
EXTD=
EXTT0=
EXTT1=
EXTT2=
EXTT3=
PLAYORDER=
